<?xml version="1.0" encoding="UTF-8"?>
<svg id="Layer_1" xmlns="http://www.w3.org/2000/svg" version="1.1" viewBox="0 0 40 40">
  <!-- Generator: Adobe Illustrator 29.7.1, SVG Export Plug-In . SVG Version: 2.1.1 Build 8)  -->
  <defs>
    <style>
      .st0 {
        fill: #1f1f1f;
      }

      .st1 {
        fill: #333;
      }
    </style>
  </defs>
  <path class="st1" d="M27.52,24.98c-.08-.2-6.96-13.82-7.07-14.01-.36-.87-1-1.63-1.87-2.14-2.14-1.25-4.88-.54-6.13,1.6-.86,1.46-.79,3.22.03,4.58.08.2,6.66,13.23,6.77,13.42.08.2.18.4.29.58.36.87,1,1.63,1.87,2.14,2.14,1.25,4.88.54,6.13-1.6.86-1.46.79-3.22-.03-4.58h.01Z"/>
  <path class="st0" d="M19.59,15.77c.75-.8,1.21-1.88,1.21-3.06,0-2.47-2.01-4.48-4.48-4.48-1.52,0-2.87.76-3.68,1.92-.15.16-11.31,13.91-11.43,14.09C.46,25.04,0,26.12,0,27.3,0,29.77,2.01,31.78,4.48,31.78c1.52,0,2.87-.76,3.68-1.92.15-.16,11.31-13.91,11.43-14.09Z"/>
  <path class="st0" d="M38.79,15.77c.75-.8,1.21-1.88,1.21-3.06,0-2.47-2.01-4.48-4.48-4.48-1.52,0-2.87.76-3.68,1.92-.15.16-11.31,13.91-11.43,14.09-.75.8-1.21,1.88-1.21,3.06,0,2.47,2.01,4.48,4.48,4.48,1.52,0,2.87-.76,3.68-1.92.15-.16,11.31-13.91,11.43-14.09Z"/>
</svg>