<?xml version="1.0" encoding="UTF-8"?>
<svg id="Layer_1" xmlns="http://www.w3.org/2000/svg" version="1.1" viewBox="0 0 40 40">
  <!-- Generator: Adobe Illustrator 29.7.1, SVG Export Plug-In . SVG Version: 2.1.1 Build 8)  -->
  <defs>
    <style>
      .st0 {
        fill: #1f1f1f;
      }
    </style>
  </defs>
  <path class="st0" d="M22.73,12.77c.69-.7,1.13-1.66,1.13-2.72,0-2.13-1.72-3.85-3.85-3.85-1.34,0-2.53.69-3.22,1.73-.18.18-15.52,19.08-15.66,19.3C.44,27.93,0,28.89,0,29.95,0,32.08,1.72,33.8,3.85,33.8c1.34,0,2.53-.69,3.22-1.73.18-.18,15.52-19.08,15.66-19.3Z"/>
  <path class="st0" d="M31.6,21.74c.7-.7,1.13-1.66,1.13-2.72,0-2.13-1.72-3.85-3.85-3.85-1.35,0-2.53.69-3.22,1.74-.18.18-8.24,10.11-8.38,10.33-.7.7-1.13,1.66-1.13,2.72,0,2.13,1.72,3.85,3.85,3.85,1.35,0,2.53-.69,3.22-1.74.18-.18,8.24-10.11,8.38-10.33Z"/>
  <circle class="st0" cx="36.15" cy="10.05" r="3.85"/>
  <circle class="st0" cx="3.85" cy="10.05" r="3.85"/>
</svg>