<?xml version="1.0" encoding="UTF-8"?>
<svg id="Layer_1" xmlns="http://www.w3.org/2000/svg" version="1.1" viewBox="0 0 40 40">
  <!-- Generator: Adobe Illustrator 29.7.1, SVG Export Plug-In . SVG Version: 2.1.1 Build 8)  -->
  <defs>
    <style>
      .st0 {
        fill: #1f1f1f;
      }
    </style>
  </defs>
  <path class="st0" d="M21.37,21.84c3.61,1.68,7.34,2.52,10.48,2.35h.06l.23-22.38c0-.79-.88-1.27-1.53-.82L11.78,13.69c1.53,2.91,5.05,6.03,9.59,8.15Z"/>
  <path class="st0" d="M31.07,26.35c-3.28,0-7.01-.9-10.6-2.57-4.95-2.31-8.68-5.6-10.47-8.89L.43,21.34c-.75.5-.48,1.67.42,1.79l16.08,2.19c.95.13,1.81.6,2.44,1.31l10.68,12.21c.59.68,1.71.27,1.72-.64l.12-11.88c-.27.01-.54.02-.82.02h0Z"/>
  <path class="st0" d="M31.07,24.65c-3.28,0-7.01-.9-10.6-2.57-8.44-3.94-13.33-10.74-11.11-15.48,2.21-4.74,10.56-5.37,19-1.44,2.76,1.29,5.27,2.96,7.24,4.83.43.4.44,1.08.04,1.5-.4.43-1.08.44-1.5.04-1.81-1.72-4.12-3.25-6.68-4.45-7.12-3.32-14.52-3.13-16.18.41s2.97,9.33,10.09,12.65c3.61,1.68,7.33,2.52,10.48,2.35,2.91-.15,4.93-1.13,5.69-2.76.79-1.7.03-3.64-.76-4.96-.3-.51-.13-1.16.38-1.46.51-.3,1.16-.13,1.46.38,1.47,2.5,1.77,4.96.85,6.94-1.11,2.38-3.77,3.79-7.51,3.99-.29.02-.59.02-.9.02h.01Z"/>
</svg>