<?xml version="1.0" encoding="UTF-8"?>
<svg id="Layer_1" xmlns="http://www.w3.org/2000/svg" version="1.1" viewBox="0 0 40 40">
  <!-- Generator: Adobe Illustrator 29.7.1, SVG Export Plug-In . SVG Version: 2.1.1 Build 8)  -->
  <defs>
    <style>
      .st0 {
        fill: #1f1f1f;
      }
    </style>
  </defs>
  <path class="st0" d="M29.77,1.95c-3.34-.02-6.32,1.71-8.17,4.4l6.51,7.57c.52.61.45,1.52-.15,2.04-.27.23-.61.35-.94.35-.41,0-.81-.17-1.1-.5-1.94-2.26-3.88-4.51-5.82-6.77-1.07-1.24-2.14-2.49-3.21-3.73-.78-.9-1.48-1.91-2.57-2.46-1.24-.62-2.7-.9-4.08-.9C3.65,1.99-1.19,9.27.26,16.08c.72,3.39,3.16,6.15,5.09,8.82,2.47,3.41,7.29,8.23,10.72,11.53,2.24,2.15,5.62,2.15,7.86,0,3.44-3.3,8.25-8.13,10.72-11.53,1.93-2.67,4.37-5.43,5.09-8.82,1.45-6.81-3.4-14.09-9.98-14.13h0Z"/>
</svg>