<?xml version="1.0" encoding="UTF-8"?>
<svg id="Layer_1" xmlns="http://www.w3.org/2000/svg" version="1.1" viewBox="0 0 512 512">
  <!-- Generator: Adobe Illustrator 29.7.1, SVG Export Plug-In . SVG Version: 2.1.1 Build 8)  -->
  <defs>
    <style>
      .st0 {
        fill: #80bafa;
      }

      .st1 {
        fill: #090051;
      }
    </style>
  </defs>
  <g>
    <rect class="st1" x="20" y="20" width="472" height="472"/>
    <path class="st0" d="M472,40v432H40V40h432M512,0H0v512h512V0h0Z"/>
  </g>
  <g id="Outlined_Mnemonics_Logos">
    <g id="Ps">
      <path class="st0" d="M121.6,350.15v-191.76c0-1.4.6-2.1,1.8-2.1,3.2,0,6.12-.05,10.52-.15,4.4-.1,9.15-.2,14.25-.3,5.1-.1,10.5-.2,16.21-.3,5.7-.1,11.35-.15,16.95-.15,15.2,0,28.01,1.9,38.41,5.7,9.39,3.18,17.95,8.4,25.06,15.3,6.03,5.98,10.69,13.2,13.65,21.16,2.81,7.74,4.23,15.92,4.2,24.16,0,16.01-3.7,29.21-11.1,39.61-7.45,10.44-17.93,18.35-30.01,22.66-12.6,4.7-26.61,6.3-42.01,6.3-4.4,0-7.5-.05-9.3-.15-1.8-.1-4.5-.15-8.1-.15v59.87c.19,1.31-.72,2.51-2.03,2.7-.22.03-.45.03-.67,0h-35.73c-1.4,0-2.1-.8-2.1-2.4ZM162.13,192.3v62.54c2.6.2,5,.3,7.2.3h9.9c7.29-.02,14.53-1.18,21.46-3.43,5.95-1.77,11.26-5.2,15.3-9.9,3.9-4.6,5.85-11,5.85-19.21.16-5.8-1.35-11.53-4.35-16.51-3.15-4.81-7.71-8.53-13.05-10.65-6.98-2.71-14.43-3.99-21.91-3.75-4.8,0-9.05.05-12.75.15-3.7.1-6.25.25-7.65.45h0Z"/>
      <path class="st0" d="M378.69,243.47c-5.64-2.9-11.65-5.02-17.86-6.3-6.84-1.57-13.84-2.38-20.86-2.4-3.8-.1-7.59.35-11.25,1.35-2.33.52-4.41,1.85-5.85,3.75-.98,1.52-1.5,3.29-1.5,5.1.05,1.76.69,3.44,1.8,4.8,1.75,2.05,3.89,3.73,6.3,4.95,4.28,2.3,8.69,4.36,13.2,6.15,10.07,3.37,19.7,7.96,28.66,13.65,6.11,3.85,11.16,9.16,14.7,15.45,2.98,5.96,4.47,12.55,4.35,19.21.18,8.79-2.33,17.43-7.2,24.76-5.21,7.44-12.45,13.22-20.86,16.65-9.11,4-20.36,6-33.76,6-8.51.09-17.01-.72-25.36-2.4-6.58-1.21-12.98-3.22-19.06-6-1.34-.69-2.16-2.1-2.1-3.6v-32.41c-.07-.65.22-1.28.75-1.65.53-.3,1.18-.24,1.65.15,7.18,4.23,14.98,7.32,23.11,9.15,7.17,1.8,14.52,2.75,21.91,2.85,7,0,12.15-.9,15.45-2.7,3.05-1.39,4.99-4.45,4.95-7.8,0-2.6-1.5-5.1-4.5-7.5-3-2.4-9.1-5.3-18.31-8.7-9.42-3.28-18.36-7.82-26.56-13.5-5.87-4.08-10.7-9.48-14.1-15.76-2.95-5.91-4.44-12.45-4.35-19.06-.02-7.94,2.16-15.73,6.3-22.51,4.72-7.46,11.49-13.4,19.51-17.11,8.8-4.4,19.8-6.6,33.01-6.6,7.73-.06,15.46.49,23.11,1.65,5.54.7,10.95,2.17,16.09,4.35.83.24,1.49.85,1.8,1.65.2.73.3,1.49.3,2.25v30.31c.04.72-.3,1.4-.9,1.8-.81.4-1.77.4-2.58,0Z"/>
    </g>
  </g>
</svg>