<?xml version="1.0" encoding="UTF-8"?>
<svg id="Layer_1" xmlns="http://www.w3.org/2000/svg" version="1.1" viewBox="0 0 512 512">
  <!-- Generator: Adobe Illustrator 29.7.1, SVG Export Plug-In . SVG Version: 2.1.1 Build 8)  -->
  <defs>
    <style>
      .st0 {
        fill: #ff7262;
      }

      .st1 {
        fill: #a259ff;
      }

      .st2 {
        fill: #1abcfe;
      }

      .st3 {
        fill: #f24e1e;
      }

      .st4 {
        fill: #0acf83;
      }
    </style>
  </defs>
  <rect width="512" height="512" rx="80" ry="80"/>
  <g>
    <path class="st2" d="M256,256c0-29.64,24.03-53.67,53.67-53.67s53.67,24.03,53.67,53.67-24.03,53.67-53.67,53.67-53.67-24.03-53.67-53.67Z"/>
    <path class="st4" d="M148.67,363.33c0-29.64,24.03-53.67,53.67-53.67h53.67v53.67c0,29.64-24.03,53.67-53.67,53.67s-53.67-24.03-53.67-53.67Z"/>
    <path class="st0" d="M256,95v107.33h53.67c29.64,0,53.67-24.03,53.67-53.67s-24.03-53.67-53.67-53.67h-53.67Z"/>
    <path class="st3" d="M148.67,148.67c0,29.64,24.03,53.67,53.67,53.67h53.67v-107.33h-53.67c-29.64,0-53.67,24.03-53.67,53.67h0Z"/>
    <path class="st1" d="M148.67,256c0,29.64,24.03,53.67,53.67,53.67h53.67v-107.33h-53.67c-29.64,0-53.67,24.03-53.67,53.67h0Z"/>
  </g>
</svg>