<?xml version="1.0" encoding="UTF-8"?>
<svg id="Layer_1" xmlns="http://www.w3.org/2000/svg" version="1.1" viewBox="0 0 512 512">
  <!-- Generator: Adobe Illustrator 29.7.1, SVG Export Plug-In . SVG Version: 2.1.1 Build 8)  -->
  <defs>
    <style>
      .st0 {
        fill: #ff9100;
      }

      .st1 {
        fill: #ffc400;
      }

      .st2 {
        fill: #dd2c00;
      }
    </style>
  </defs>
  <path class="st0" d="M179.86,497.28c21.42,8.64,44.65,13.76,69.05,14.59,33.03,1.17,64.41-5.66,92.52-18.64-33.67-13.22-64.17-32.55-90.18-56.6-16.88,27.03-41.82,48.36-71.39,60.65Z"/>
  <path class="st1" d="M251.25,436.58c-59.38-54.94-95.45-134.43-92.37-221.68.1-2.83.24-5.66.44-8.49-10.64-2.73-21.76-4.44-33.18-4.83-16.35-.59-32.21,1.46-47.19,5.66-15.86,27.81-25.42,59.68-26.59,93.83-3.07,88.13,50.26,165.08,127.55,196.21,29.57-12.35,54.51-33.62,71.39-60.65l-.05-.05Z"/>
  <path class="st0" d="M251.25,436.58c13.81-22.1,22.2-48.02,23.18-75.93,2.59-73.44-46.8-136.63-115.11-154.24-.2,2.83-.34,5.66-.44,8.49-3.03,87.2,32.99,166.74,92.37,221.68Z"/>
  <path class="st2" d="M266.77,0c-38.89,31.18-69.63,72.27-88.22,119.65-10.64,27.13-17.32,56.26-19.27,86.81,68.31,17.62,117.7,80.81,115.11,154.24-.98,27.91-9.37,53.82-23.18,75.93,26.01,24.06,56.51,43.38,90.18,56.6,67.58-31.23,115.5-98.47,118.28-177.96,1.81-51.53-18.01-97.4-45.97-136.19C384.22,138.09,266.77,0,266.77,0Z"/>
</svg>