<?xml version="1.0" encoding="UTF-8"?>
<svg id="Layer_1" xmlns="http://www.w3.org/2000/svg" version="1.1" viewBox="0 0 512 512">
  <!-- Generator: Adobe Illustrator 29.7.1, SVG Export Plug-In . SVG Version: 2.1.1 Build 8)  -->
  <defs>
    <style>
      .st0 {
        fill: #61dafb;
      }
    </style>
  </defs>
  <path class="st0" d="M512,256.05c0-33.91-42.48-66.05-107.6-85.98,15.03-66.37,8.35-119.17-21.08-136.07-6.78-3.97-14.72-5.84-23.38-5.84v23.27c4.8,0,8.66.94,11.9,2.71,14.19,8.14,20.35,39.13,15.55,78.99-1.15,9.81-3.03,20.14-5.32,30.68-20.45-5.01-42.79-8.87-66.27-11.37-14.09-19.3-28.7-36.83-43.41-52.17,34.02-31.62,65.96-48.94,87.66-48.94v-23.27c-28.7,0-66.27,20.45-104.26,55.93-37.99-35.27-75.56-55.51-104.26-55.51v23.27c21.6,0,53.64,17.22,87.66,48.63-14.61,15.34-29.22,32.77-43.1,52.07-23.59,2.5-45.92,6.37-66.37,11.48-2.4-10.43-4.17-20.56-5.43-30.26-4.91-39.86,1.15-70.85,15.24-79.1,3.13-1.88,7.2-2.71,12-2.71v-23.27c-8.77,0-16.7,1.88-23.59,5.84-29.33,16.9-35.9,69.6-20.77,135.76C42.27,190.21,0,222.24,0,256.05s42.48,66.05,107.6,85.98c-15.03,66.37-8.35,119.17,21.08,136.07,6.78,3.97,14.72,5.84,23.48,5.84,28.7,0,66.27-20.45,104.26-55.93,37.99,35.27,75.56,55.51,104.26,55.51,8.77,0,16.7-1.88,23.59-5.84,29.33-16.9,35.9-69.6,20.77-135.76,64.7-19.93,106.97-52.07,106.97-85.88h0ZM376.12,186.45c-3.86,13.46-8.66,27.34-14.09,41.22-4.28-8.35-8.77-16.7-13.67-25.04-4.8-8.35-9.91-16.49-15.03-24.42,14.82,2.19,29.12,4.9,42.79,8.24h0ZM328.32,297.58c-8.14,14.09-16.49,27.44-25.15,39.86-15.55,1.36-31.31,2.09-47.17,2.09s-31.52-.73-46.96-1.98c-8.66-12.42-17.12-25.67-25.26-39.65-7.93-13.67-15.13-27.55-21.71-41.53,6.47-13.98,13.78-27.97,21.6-41.63,8.14-14.09,16.49-27.44,25.15-39.86,15.55-1.36,31.31-2.09,47.17-2.09s31.52.73,46.96,1.98c8.66,12.42,17.12,25.67,25.26,39.65,7.93,13.67,15.13,27.55,21.71,41.53-6.57,13.98-13.78,27.97-21.6,41.63h0ZM362.03,284.02c5.64,13.98,10.44,27.97,14.4,41.53-13.67,3.34-28.07,6.16-43,8.35,5.11-8.03,10.23-16.28,15.03-24.73,4.8-8.35,9.29-16.8,13.57-25.15h0ZM256.21,395.36c-9.71-10.02-19.41-21.18-29.01-33.39,9.39.42,18.99.73,28.7.73s19.52-.21,29.01-.73c-9.39,12.21-19.1,23.37-28.7,33.39ZM178.56,333.9c-14.82-2.19-29.12-4.9-42.79-8.24,3.86-13.46,8.66-27.34,14.09-41.22,4.28,8.35,8.77,16.7,13.67,25.04s9.91,16.49,15.03,24.42ZM255.69,116.75c9.71,10.02,19.41,21.18,29.01,33.39-9.39-.42-18.99-.73-28.7-.73s-19.52.21-29.01.73c9.39-12.21,19.1-23.37,28.7-33.39ZM178.46,178.21c-5.11,8.03-10.23,16.28-15.03,24.73-4.8,8.35-9.29,16.7-13.57,25.04-5.64-13.98-10.44-27.97-14.4-41.53,13.67-3.23,28.07-6.05,43-8.24h0ZM84.01,308.85c-36.94-15.76-60.84-36.42-60.84-52.8s23.9-37.15,60.84-52.8c8.98-3.86,18.79-7.3,28.91-10.54,5.95,20.45,13.78,41.74,23.48,63.55-9.6,21.7-17.32,42.89-23.17,63.24-10.33-3.23-20.14-6.78-29.22-10.64h0ZM140.16,457.97c-14.19-8.14-20.35-39.13-15.55-78.99,1.15-9.81,3.03-20.14,5.32-30.68,20.45,5.01,42.79,8.87,66.27,11.37,14.09,19.3,28.7,36.83,43.41,52.17-34.02,31.62-65.96,48.94-87.66,48.94-4.7-.1-8.66-1.04-11.79-2.82h0ZM387.7,378.45c4.91,39.86-1.15,70.85-15.24,79.1-3.13,1.88-7.2,2.71-12,2.71-21.6,0-53.64-17.22-87.66-48.63,14.61-15.34,29.22-32.77,43.1-52.07,23.59-2.5,45.92-6.37,66.37-11.48,2.4,10.54,4.28,20.66,5.43,30.37ZM427.88,308.85c-8.98,3.86-18.79,7.3-28.91,10.54-5.95-20.45-13.78-41.74-23.48-63.55,9.6-21.7,17.32-42.89,23.17-63.24,10.33,3.23,20.14,6.78,29.33,10.64,36.94,15.76,60.84,36.42,60.84,52.8-.1,16.38-24,37.15-60.95,52.8h0Z"/>
  <ellipse class="st0" cx="255.9" cy="256.05" rx="47.69" ry="47.69"/>
</svg>